<svg width="50" height="50" viewBox="0 0 50 50" fill="none" xmlns="http://www.w3.org/2000/svg">
<path d="M37.8178 6.69531H9.99883C8.725 6.69531 7.69238 7.72793 7.69238 9.00176V11.2561H40.1242V9.00176C40.1242 7.72793 39.0916 6.69531 37.8178 6.69531Z" fill="#00CCD1"/>
<path d="M38.1752 8.97559H9.64141C8.56504 8.97559 7.69238 9.84824 7.69238 10.9246V11.2559H40.1242V10.9246C40.1242 9.84824 39.2518 8.97559 38.1752 8.97559Z" fill="#02B3B7"/>
<path d="M40.3582 11.2561H9.96816C8.71133 11.2561 7.69238 10.2371 7.69238 8.98027V34.1766C7.69238 35.2529 8.56504 36.1256 9.64141 36.1256H40.3582C41.4346 36.1256 42.3072 35.2529 42.3072 34.1766V13.2051C42.3072 12.1287 41.4346 11.2561 40.3582 11.2561Z" fill="#39E2E6"/>
<path d="M8.86523 31.6914C8.76163 31.6914 8.66228 31.6503 8.58902 31.577C8.51576 31.5037 8.47461 31.4044 8.47461 31.3008C8.47461 31.084 8.64844 30.9102 8.86523 30.9102C8.96883 30.9102 9.06819 30.9513 9.14145 31.0246C9.2147 31.0978 9.25586 31.1972 9.25586 31.3008C9.25586 31.4044 9.2147 31.5037 9.14145 31.577C9.06819 31.6503 8.96883 31.6914 8.86523 31.6914ZM8.86523 30.1289C8.76163 30.1289 8.66228 30.0878 8.58902 30.0145C8.51576 29.9412 8.47461 29.8419 8.47461 29.7383V12.1602C8.47461 11.9434 8.64844 11.7695 8.86523 11.7695C8.96883 11.7695 9.06819 11.8107 9.14145 11.8839C9.2147 11.9572 9.25586 12.0566 9.25586 12.1602V29.7383C9.25586 29.9529 9.08008 30.1289 8.86523 30.1289Z" fill="#56E5E8"/>
<path d="M7.7125 9.28281C7.69917 9.18251 7.69245 9.08145 7.69238 8.98027V9.27988C7.69902 9.28105 7.70586 9.28203 7.7125 9.28281ZM40.3582 11.2561H40.3541V32.2234C40.3541 33.2998 39.4814 34.1725 38.4051 34.1725H7.69238V34.1766C7.69238 35.2529 8.56504 36.1256 9.64141 36.1256H40.3582C41.4346 36.1256 42.3072 35.2529 42.3072 34.1766V13.2051C42.3072 12.1285 41.4346 11.2561 40.3582 11.2561Z" fill="#00CCD1"/>
<path d="M41.1592 11.4277C41.2726 11.6794 41.3312 11.9524 41.3309 12.2285V33.2C41.3309 34.2764 40.4582 35.149 39.3818 35.149H8.66504C8.38894 35.1494 8.11593 35.0909 7.86426 34.9773C8.01854 35.3195 8.26832 35.6099 8.5836 35.8136C8.89888 36.0173 9.26625 36.1256 9.6416 36.1256H40.3584C41.4348 36.1256 42.3074 35.2529 42.3074 34.1766V13.2051C42.3075 12.8297 42.1992 12.4623 41.9955 12.147C41.7918 11.8317 41.5014 11.582 41.1592 11.4277Z" fill="#02B3B7"/>
<path d="M36.2533 23.8283H30.4082C29.3295 23.8283 28.4551 22.9539 28.4551 21.8752L28.6102 11.2385H38.3613L38.2064 21.8752C38.2064 22.9539 37.3318 23.8283 36.2533 23.8283Z" fill="#02B3B7"/>
<path d="M33.857 17.1051H33.6549V15.1215H33.857C34.4039 15.1215 34.8488 15.5664 34.8488 16.1133C34.8488 16.2922 34.9943 16.4377 35.1732 16.4377C35.3521 16.4377 35.4977 16.2922 35.4977 16.1133C35.4977 15.2086 34.7617 14.4727 33.857 14.4727H33.6549V14.2705C33.6549 14.0916 33.5094 13.9461 33.3305 13.9461C33.1516 13.9461 33.0061 14.0916 33.0061 14.2705V14.4727H32.8039C31.8992 14.4727 31.1633 15.2086 31.1633 16.1133C31.1633 17.018 31.8992 17.7539 32.8039 17.7539H33.0061V20.2643H32.8039C32.5409 20.2639 32.2888 20.1594 32.1029 19.9734C31.9169 19.7875 31.8123 19.5354 31.8119 19.2725C31.8119 19.0936 31.6664 18.948 31.4875 18.948C31.3086 18.948 31.1631 19.0936 31.1631 19.2725C31.1631 20.1771 31.899 20.9131 32.8037 20.9131H33.0059V21.1152C33.0059 21.2941 33.1514 21.4396 33.3303 21.4396C33.5092 21.4396 33.6547 21.2941 33.6547 21.1152V20.9131H33.8568C34.7615 20.9131 35.4975 20.1771 35.4975 19.2725V18.7459C35.4977 17.8412 34.7617 17.1051 33.857 17.1051ZM32.8041 15.1215H33.0062V17.1051H32.8041C32.2572 17.1051 31.8121 16.6602 31.8121 16.1133C31.8121 15.5664 32.2572 15.1215 32.8041 15.1215ZM34.8488 18.7457V19.2723C34.8488 19.8191 34.4039 20.2641 33.857 20.2641H33.6549V17.7539H33.857C34.4039 17.7539 34.8488 18.1988 34.8488 18.7457Z" fill="white"/>
<path d="M24.9999 43.9193C31.469 43.9193 36.7132 38.6751 36.7132 32.206C36.7132 25.737 31.469 20.4928 24.9999 20.4928C18.5308 20.4928 13.2866 25.737 13.2866 32.206C13.2866 38.6751 18.5308 43.9193 24.9999 43.9193Z" fill="#F1F2F2"/>
<path d="M32.7781 23.4512C34.6176 25.5199 35.7367 28.2436 35.7367 31.2295C35.7367 37.6986 30.4924 42.9428 24.0234 42.9428C21.0375 42.9428 18.3139 41.8236 16.2451 39.9844C18.3906 42.3975 21.517 43.9193 25 43.9193C31.4691 43.9193 36.7133 38.675 36.7133 32.2061C36.7131 28.723 35.1912 25.5967 32.7781 23.4512Z" fill="#25FAFF"/>
<path d="M29.8058 28.6551C29.6519 28.5178 29.4013 28.5613 29.3015 28.7414C28.7367 29.7006 27.7254 30.7779 26.3347 31.2055C27.5625 29.6395 27.8674 27.4109 26.9888 25.6088C26.248 24.0912 24.8461 23.025 23.4162 22.1971C22.8679 21.8725 22.1679 22.4049 22.3355 23.0199C22.8845 25.0406 22.3064 27.2992 20.5466 28.5322C13.3976 34.8664 22.03 45.4252 29.6593 39.6744C33.1095 36.9092 33.1728 31.5113 29.8058 28.6551Z" fill="#39E2E6"/>
<path d="M29.8057 28.6551C29.7863 28.6378 29.7648 28.623 29.7418 28.6111C32.1687 31.5922 31.8125 36.2242 28.702 38.717C25.4127 41.1963 21.9373 40.6439 19.6201 38.7057C21.8508 41.3682 25.8779 42.5244 29.6592 39.6742C33.1094 36.9092 33.1727 31.5113 29.8057 28.6551Z" fill="#00CCD1"/>
<path d="M29.3307 29.7672C29.4402 29.3859 29.4891 28.9902 29.4816 28.5938V28.5922C29.4052 28.6177 29.3411 28.6709 29.3018 28.7412C28.7369 29.7004 27.7256 30.7777 26.335 31.2053L26.3379 31.2016L26.3315 31.2053C26.2488 31.3209 25.1178 32.9367 24.6211 33.6449C24.608 33.6634 24.5987 33.6843 24.5937 33.7064C24.5886 33.7285 24.588 33.7513 24.5918 33.7736C24.5956 33.796 24.6038 33.8173 24.6159 33.8365C24.6279 33.8557 24.6436 33.8723 24.6621 33.8854C25.6897 33.8668 28.2949 32.8078 29.3307 29.7672Z" fill="#00CCD1"/>
<path d="M31.3515 37.6854C31.3498 37.6797 31.3488 37.6742 31.347 37.6684C31.1328 37.7488 31.0316 37.9236 30.8382 38.1064C30.4007 38.5178 29.8658 38.8113 29.2838 38.9594C27.6812 39.3932 25.8769 38.585 25.1822 37.067C25.1099 36.9131 24.8648 36.9609 24.8543 37.1299C24.7897 37.7057 24.8649 38.2887 25.0735 38.8293C25.2821 39.3699 25.618 39.8522 26.0527 40.2354C26.1816 40.3422 26.0742 40.5666 25.9097 40.5332C22.4787 39.9844 20.6519 35.8723 22.5156 32.9522C22.6086 32.8137 22.442 32.6291 22.2945 32.7065C20.0769 33.7529 19.0234 36.3301 19.5884 38.6666L19.5882 38.6676C21.8123 41.3572 25.8603 42.5383 29.6597 39.6744C30.3453 39.1256 30.9202 38.4513 31.3537 37.6875L31.3515 37.6854Z" fill="#02B3B7"/>
<path d="M22.5932 22.2672C22.3793 22.4379 22.2535 22.7189 22.3355 23.0197C22.8846 25.0404 22.3064 27.299 20.5467 28.532C18.8766 30.0117 18.0678 31.7223 17.9062 33.4014C18.8316 32.042 20.1633 31.0309 21.5004 30.1576C24.0922 28.2748 24.7232 24.7326 22.5934 22.2684L22.5932 22.2672Z" fill="#00CCD1"/>
</svg>
