<svg width="12" height="17" viewBox="0 0 12 17" fill="none" xmlns="http://www.w3.org/2000/svg">
<path d="M10 10.75V8.75H11.61C11.85 9.46 12 10.14 12 10.75H10ZM9.58 4.75C9.12 4.04 8.65 3.36 8.2 2.75H8V4.75H9.58ZM10 8.75V6.75H8V8.75H10ZM10 5.43V6.75H10.74C10.5 6.31 10.26 5.86 10 5.43ZM6 12.75V10.75H8V8.75H6V6.75H8V4.75H6V2.75H8V2.48C6.9 1.01 6 0 6 0C6 0 0 6.75 0 10.75C0 14.06 2.69 16.75 6 16.75V14.75H8V12.75H6ZM8 16.4C8.75 16.14 9.42 15.75 10 15.21V14.75H8V16.4ZM8 12.75H10V10.75H8V12.75ZM10 14.75H10.46C11 14.17 11.39 13.5 11.65 12.75H10V14.75Z" fill="#389AE4"/>
</svg>
