<svg xmlns="http://www.w3.org/2000/svg" viewBox="0 0 4680 3120" id="MandoingNFTcryptoexchange"><defs><clipPath id="a"><path fill="none" d="M1901.44 1220.62h664.27v1050.69h-664.27a55.19 55.19 0 0 1-55.19-55.19v-940.31a55.19 55.19 0 0 1 55.19-55.19Z"></path></clipPath></defs><g data-name="3" fill="#000000" class="color000000 svgShape"><path fill="#ecf9fe" d="M4069.9 2294.85a893.23 893.23 0 0 1-76.61 363.15H2353.64c-1.17-2.63-2.33-5.28-3.47-7.93h-50.77c-.14 2.65-.3 5.3-.45 7.93H509.44q-1.68-27.42-1.69-55.29c0-336.41 185.31-629.54 459.42-782.88a908.13 908.13 0 0 1-4.73-92.61c0-495.08 401.35-896.44 896.44-896.44q44.8 0 88.5 4.33c140.72-91.87 308.84-145.29 489.43-145.29 434.64 0 797 309.33 879 719.86 427.45 68.21 754.09 438.54 754.09 885.17Z" class="colorecf1fe svgShape"></path><rect width="1595.98" height="1116.19" x="2234.55" y="1522.38" fill="#82d4f1" rx="136.25" class="colora382f1 svgShape"></rect><path fill="#ffffff" d="M3830.53 2043.82v477.93A136.24 136.24 0 0 1 3694.28 2658H2370.8a136.24 136.24 0 0 1-136.25-136.25v-477.93Z" class="colorffffff svgShape"></path><path fill="#4a9ebc" d="M3830.53 2227.94v293.81A136.24 136.24 0 0 1 3694.28 2658H2370.8a136.24 136.24 0 0 1-136.25-136.25v-79.39q15.72-15.17 31.86-29.91c46-42 95.22-81.83 152-107.53s122.32-36.32 182.1-18.61c90.93 26.94 153.59 113 242.41 146.24 98.15 36.75 209.59 1.86 298.74-53.23s165.25-129.58 255.47-182.91 203.85-83.83 299.65-41.36c46.52 20.62 85.68 57.06 133.75 72.89Z" class="color7f4abc svgShape"></path><rect width="1309.72" height="51.29" x="2338.92" y="1631.28" fill="#4a9ebc" rx="25.64" class="color7f4abc svgShape"></rect><rect width="1309.72" height="51.29" x="2338.92" y="1892.28" fill="#4a9ebc" rx="25.64" class="color7f4abc svgShape"></rect><rect width="749.89" height="51.29" x="2334.15" y="1731.71" fill="#4a9ebc" rx="25.64" class="color7f4abc svgShape"></rect><rect width="926.24" height="738.07" x="749.75" y="1162.97" fill="#64cef3" rx="64.25" class="colorad64f3 svgShape"></rect><rect width="853.89" height="674.85" x="782.43" y="1194.58" fill="#4a9ebc" rx="41.14" class="color7f4abc svgShape"></rect><rect width="50.84" height="372.44" x="886.76" y="1284.49" fill="#82d4f1" rx="25.42" class="colora382f1 svgShape"></rect><rect width="50.84" height="372.44" x="983.3" y="1345.78" fill="#69b2cc" rx="25.42" class="color69ccae svgShape"></rect><rect width="50.84" height="372.44" x="1083.05" y="1269.1" fill="#5dcdf5" rx="25.42" class="colorf5715d svgShape"></rect><rect width="50.84" height="372.44" x="1175.44" y="1359.94" fill="#1f5a6f" rx="25.42" class="color1f296f svgShape"></rect><rect width="50.84" height="372.44" x="1276.01" y="1408.09" fill="#82d4f1" rx="25.42" class="colora382f1 svgShape"></rect><rect width="50.84" height="372.44" x="1368.32" y="1309.45" fill="#82d4f1" rx="25.42" class="colora382f1 svgShape"></rect><rect width="835.98" height="103.73" x="630.08" y="2450.55" fill="#5ed5ff" rx="25.41" class="colorff8e5e svgShape"></rect><path fill="#69d8ff" d="M692.92 2450.55h55.54v103.73h-55.54zM800.35 2450.55h55.54v103.73h-55.54zM907.78 2450.55h55.54v103.73h-55.54zM1015.21 2450.55h55.54v103.73h-55.54zM1122.64 2450.55h55.54v103.73h-55.54zM1230.07 2450.55h55.54v103.73h-55.54zM1337.5 2450.55h55.54v103.73h-55.54z" class="colorffe269 svgShape"></path><rect width="835.98" height="103.73" x="692.92" y="2554.28" fill="#56c5ed" rx="25.41" class="colored7d56 svgShape"></rect><path fill="#69d8ff" d="M755.75 2554.28h55.54v103.73h-55.54zM863.19 2554.28h55.54v103.73h-55.54zM970.62 2554.28h55.54v103.73h-55.54zM1078.05 2554.28h55.54v103.73h-55.54zM1185.48 2554.28h55.54v103.73h-55.54zM1292.91 2554.28h55.54v103.73h-55.54zM1400.34 2554.28h55.54v103.73h-55.54z" class="colorffe269 svgShape"></path><rect width="835.98" height="103.73" x="760.19" y="2139.26" fill="#56c5ed" rx="25.41" class="colored7d56 svgShape"></rect><path fill="#69d8ff" d="M823.03 2139.26h55.54v103.73h-55.54zM930.46 2139.26H986v103.73h-55.54zM1037.89 2139.26h55.54v103.73h-55.54zM1145.32 2139.26h55.54v103.73h-55.54zM1252.75 2139.26h55.54v103.73h-55.54zM1360.18 2139.26h55.54v103.73h-55.54zM1467.61 2139.26h55.54v103.73h-55.54z" class="colorffe269 svgShape"></path><rect width="835.98" height="103.73" x="605.36" y="2346.72" fill="#5ed5ff" rx="25.41" class="colorff8e5e svgShape"></rect><path fill="#69d8ff" d="M668.19 2346.72h55.54v103.73h-55.54zM775.62 2346.72h55.54v103.73h-55.54zM883.05 2346.72h55.54v103.73h-55.54zM990.48 2346.72h55.54v103.73h-55.54zM1097.91 2346.72h55.54v103.73h-55.54zM1205.34 2346.72h55.54v103.73h-55.54zM1312.77 2346.72h55.54v103.73h-55.54z" class="colorffe269 svgShape"></path><rect width="835.98" height="103.73" x="680.29" y="2242.99" fill="#76dbff" rx="25.41" class="colorff9976 svgShape"></rect><path fill="#69d8ff" d="M743.13 2242.99h55.54v103.73h-55.54zM850.56 2242.99h55.54v103.73h-55.54zM957.99 2242.99h55.54v103.73h-55.54zM1065.42 2242.99h55.54v103.73h-55.54zM1172.85 2242.99h55.54v103.73h-55.54zM1280.28 2242.99h55.54v103.73h-55.54zM1387.71 2242.99h55.54v103.73h-55.54z" class="colorffe269 svgShape"></path><circle cx="1243.97" cy="1783" r="287.27" fill="#69d8ff" class="colorffe269 svgShape"></circle><path fill="#61ccf2" d="M1244 2031.9a248.9 248.9 0 1 1 176-72.9 247.29 247.29 0 0 1-176 72.9Zm0-489.16c-132.48 0-240.26 107.78-240.26 240.26s107.78 240.25 240.26 240.25 240.25-107.77 240.25-240.25-107.81-240.26-240.25-240.26Z" class="colorf28c61 svgShape"></path><path fill="#5ed5ff" d="M1354.79 1799.24q-14.05-16.89-37.48-26.73a76.36 76.36 0 0 0 26.25-23.89q12-17.76 12-43.07 0-38-26.54-56.55-16.72-11.7-40.91-16v-42h-33.39v39.49h-11.32V1591H1210v39.49h-71.18V1677h36.72v204.54h-36.72v46.54H1210V1971h33.38v-42.9h11.37v42.9h33.39v-44.12a143.84 143.84 0 0 0 18-3.47 99.46 99.46 0 0 0 32.45-14.91 72.57 72.57 0 0 0 22.87-26.33q8.35-16.12 8.37-39.4.07-25.35-15.04-43.53Zm-49-83.48a44.69 44.69 0 0 1-10 28.78q-10 12.45-31.24 12.45h-40.82v-80h35.52q21.23 0 33.88 9.39t12.67 29.38Zm-1.23 157.79q-15.51 9.6-38.37 9.59h-42.46v-79.61h39.19a100.5 100.5 0 0 1 27.35 3.68 47.94 47.94 0 0 1 21.44 12q8.35 8.37 8.37 23.88.01 20.91-15.51 30.46Z" class="colorff8e5e svgShape"></path><rect width="909.37" height="1831.67" x="1401.86" y="824.71" fill="#1f5a6f" rx="99.39" class="color1f296f svgShape"></rect><rect width="909.37" height="1831.67" x="1468.4" y="824.71" fill="#64cef3" rx="122.03" class="colorad64f3 svgShape"></rect><path fill="#d4f3fe" d="M2328.23 977.18v1531.46a94.07 94.07 0 0 1-94.07 94.07H1612a94.08 94.08 0 0 1-94.08-94.08V977.18a94.09 94.09 0 0 1 94.08-94.09h105.91a30.56 30.56 0 0 1 29.17 21.49l7.3 23.56a39.41 39.41 0 0 0 37.62 27.72h302.81a39.41 39.41 0 0 0 38.49-31l3.87-17.75a30.57 30.57 0 0 1 29.84-24h67.11a94.06 94.06 0 0 1 94.07 94.09Z" class="colord4eafe svgShape"></path><path fill="#6ed9ff" d="M1791.93 955.86h-49.55a39.41 39.41 0 0 1-37.63-27.72l-7.31-23.56a30.54 30.54 0 0 0-29.16-21.49h49.54a30.56 30.56 0 0 1 29.18 21.49l7.31 23.56a39.39 39.39 0 0 0 37.62 27.72ZM2328.11 977.18v1531.46a94.07 94.07 0 0 1-94.06 94.07h-622.14a94.1 94.1 0 0 1-89.2-64.11 93.65 93.65 0 0 0 39.65 8.74h622.14a94.06 94.06 0 0 0 94.07-94.06V921.81a93.76 93.76 0 0 0-4.88-30 94.05 94.05 0 0 1 54.42 85.34Z" class="color99c0dd svgShape"></path><path fill="#f2fcff" d="M2328.23 977.18v109.39l-810.29 710.27v-178.56L2311.1 923a93.68 93.68 0 0 1 17.13 54.18ZM2328.23 1613.58v178.56l-810.29 710.27v-178.55l810.29-710.28zM2328.23 1123.51V1182l-810.29 710.28v-58.5l810.29-710.27z" class="colorf2f9ff svgShape"></path><rect width="153.67" height="1050.69" x="1846.25" y="1220.62" fill="#1f5a6f" rx="55.19" class="color1f296f svgShape"></rect><rect width="153.67" height="1050.69" x="1856.55" y="1220.62" fill="#1f5a6f" rx="55.19" class="color1f296f svgShape"></rect><path fill="#0e3644" d="M2039.78 1275.81v940.31a55.18 55.18 0 0 1-55.18 55.18H1955a55.19 55.19 0 0 0 55.19-55.18v-940.31a55.19 55.19 0 0 0-55.19-55.19h29.57a55.18 55.18 0 0 1 55.21 55.19Z" class="color0e1744 svgShape"></path><g clip-path="url(#a)" fill="#000000" class="color000000 svgShape"><path fill="#5ed5ff" d="M2161 1285h-85.77v19c-126.18 57.38-218.32 238.15-218.32 452.27s92.14 394.88 218.32 452.27v19H2161c167.94 0 304.08-211 304.08-471.28S2328.89 1285 2161 1285Z" class="colorff8e5e svgShape"></path><ellipse cx="2075.18" cy="1756.33" fill="#69d8ff" rx="304.08" ry="471.28" class="colorffe269 svgShape"></ellipse><path fill="#5ed5ff" d="M2075.18 2201.23c-37.84 0-74.64-12.34-109.4-36.67-33-23.12-62.78-56-88.42-97.75-25.34-41.27-45.28-88.9-59.25-141.57a659 659 0 0 1-21.69-168.91 650.62 650.62 0 0 1 21.69-168.15c14-52.16 33.9-99.23 59.27-139.91 25.6-41 55.36-73.37 88.44-96.07 34.7-23.8 71.49-35.87 109.36-35.87s74.66 12.07 109.36 35.87c33.08 22.7 62.84 55 88.44 96.07 25.37 40.68 45.31 87.75 59.27 139.91a650.62 650.62 0 0 1 21.69 168.15 659 659 0 0 1-21.69 168.91c-14 52.67-33.91 100.3-59.25 141.57-25.64 41.74-55.39 74.63-88.42 97.75-34.76 24.33-71.58 36.67-109.4 36.67Zm0-875.17c-71 0-138.32 45.23-189.54 127.36s-79.48 189.77-79.48 302.91c0 235.88 123.19 435.16 269 435.16s269-199.28 269-435.16c0-113.14-28.23-220.72-79.49-302.91s-118.48-127.36-189.49-127.36Z" class="colorff8e5e svgShape"></path><path fill="#5ed5ff" d="M2267.78 1589.63h-103.86a5.22 5.22 0 0 0-5.22 5.22v25.34a5.22 5.22 0 0 0 5.22 5.22h28.82a5.21 5.21 0 0 1 5.21 5.21v303.82a5.22 5.22 0 0 0 5.22 5.22h25.35a5.22 5.22 0 0 0 5.21-5.22v-303.82a5.21 5.21 0 0 1 5.21-5.21h28.84a5.22 5.22 0 0 0 5.21-5.22v-25.34a5.22 5.22 0 0 0-5.21-5.22ZM2135.67 1619.48v-23.93a5.93 5.93 0 0 0-5.93-5.92h-95.52a5.92 5.92 0 0 0-5.92 5.92v338.19a5.92 5.92 0 0 0 5.92 5.92h23.93a5.92 5.92 0 0 0 5.92-5.92v-175.3a5.93 5.93 0 0 1 5.93-5.92h59.74a5.93 5.93 0 0 0 5.93-5.92v-23.94a5.93 5.93 0 0 0-5.93-5.92H2070a5.93 5.93 0 0 1-5.93-5.92v-79.49a5.93 5.93 0 0 1 5.93-5.92h59.74a5.93 5.93 0 0 0 5.93-5.93ZM1966.26 1787.85a1.58 1.58 0 0 0 3.1-.41v-192.07a5.74 5.74 0 0 1 5.74-5.74h24.29a5.74 5.74 0 0 1 5.74 5.74v338.55a5.74 5.74 0 0 1-5.74 5.74h-25.63a5.74 5.74 0 0 1-5.54-4.26l-51.42-192a1.86 1.86 0 0 0-3.66.48v190a5.74 5.74 0 0 1-5.74 5.74h-24.29a5.74 5.74 0 0 1-5.74-5.74v-338.51a5.74 5.74 0 0 1 5.74-5.74h26.54a4.57 4.57 0 0 1 4.4 3.38Z" class="colorff8e5e svgShape"></path></g><rect width="31.35" height="264.38" x="1423.38" y="1141.51" fill="#adcdd8" rx="15.68" class="coloradbad8 svgShape"></rect><rect width="31.35" height="264.38" x="1415.89" y="1141.51" fill="#ecf9fe" rx="15.68" class="colorecf1fe svgShape"></rect><rect width="31.35" height="264.38" x="1423.38" y="1447.41" fill="#adcdd8" rx="15.68" class="coloradbad8 svgShape"></rect><rect width="31.35" height="264.38" x="1415.89" y="1447.41" fill="#ecf9fe" rx="15.68" class="colorecf1fe svgShape"></rect><rect width="189.48" height="20.2" x="1848.27" y="883.09" fill="#1f5a6f" rx="10.1" class="color1f296f svgShape"></rect><circle cx="1824.07" cy="893.19" r="10.34" fill="#1f5a6f" class="color1f296f svgShape"></circle><circle cx="1788.71" cy="893.19" r="12.79" fill="#1f5a6f" class="color1f296f svgShape"></circle><path fill="#5dcdf5" d="M3175.77 2652.38H2771a.59.59 0 0 0 .44-.3 365.39 365.39 0 0 1 25.89-33.78c32-37 71.47-66.05 119-79.48l47.16-13.31 191.41-42.68 16.67 135.47Z" class="colorf5715d svgShape"></path><path fill="#87d7f4" d="M2951.54 2653.59H2771a.56.56 0 0 0 .44-.3 368.09 368.09 0 0 1 25.89-33.78c32-37 71.47-66.05 119-79.48.01-.03 78.58 27.17 35.21 113.56Z" class="colorf49187 svgShape"></path><path fill="#39abd3" d="M3175.77 2653.59H2771a.56.56 0 0 0 .44-.3 368.09 368.09 0 0 1 25.89-33.78h374.26Z" class="colord34839 svgShape"></path><path fill="#5dcdf5" d="m3623.36 2462.61-109.67 192.14-174.08-1.79 12.03-34.66 28.67-82.52 6-17.26-10.61-85.63 137.99-81.98 80.64 82.14 29.03 29.56z" class="colorf5715d svgShape"></path><path fill="#87d7f4" d="M3513.69 2656h-239.48a119.74 119.74 0 1 1 239.48 0Z" class="colorf49187 svgShape"></path><path fill="#39abd3" d="M3623.36 2463.83 3513.69 2656h-239.48a119.73 119.73 0 0 1 5.65-36.46h187.49a37.61 37.61 0 0 0 32.72-19.05l94.26-166.2Z" class="colord34839 svgShape"></path><path fill="#153e4c" d="m2923.14 1581.65 210 517.77 185.17 379.5a19.18 19.18 0 0 0 14.95 10.64c38.27 4.62 171.41 10.5 242.61-116.95a19.27 19.27 0 0 0-.86-20.22L3401.16 2097a556.8 556.8 0 0 1-89.47-225l-53.16-330.7Z" class="color151f4c svgShape"></path><path fill="#1f5a6f" d="M3438.41 1684.57a203.68 203.68 0 0 1-39.27 67.3c-36.13 51.71-101.63 128.65-214.1 214.54a136 136 0 0 0-53 120l52.71 381.4a27.29 27.29 0 0 1-12.88 27.05c-32.06 19.54-115.29 56.15-252 21.66a27.24 27.24 0 0 1-20.59-25.3l-19.57-462.29-2.77-65.32a135.9 135.9 0 0 1 33.45-100.79l39.37-42.84 363.41-395.55c106.43 37.26 162.5 153.73 125.24 260.14Z" class="color1f296f svgShape"></path><path fill="#5da2ba" d="m2879.73 2028.93-2.77-65.32a135.9 135.9 0 0 1 33.45-100.79l39.37-42.84 2 3c13.4 19.63 81.32 132.8-72.05 205.95Z" class="color5d6dba svgShape"></path><path fill="#99ddf5" d="m2842.52 1367.87-31.19-229.74-150.53-127.8a12.05 12.05 0 0 1-4.22-10.13 104.59 104.59 0 0 0-36.43-87.55c-19-16.25-38-35.16-40.24-47.52-4.64-25.58-48.92 12.79-8.08 48.22 35.31 30.64-96.45 15-132.71 10.28-8-1.06-15.25 5.68-14.2 13.74.7 5.43 5.08 11 18 14.06a439.67 439.67 0 0 0 59.54 9.64s157.37 261.15 307.49 422.22c12.57 13.49 35.05 2.86 32.57-15.42Z" class="colorf5ae99 svgShape"></path><path fill="#7ac3dd" d="M2514 970.37c-1.93 19.31-8.24 72.72 13.22 81.94a33.42 33.42 0 0 0 5.33 1.14c16.79 2.2 39.74 2.76 56.23-1.2 38.18-9.18-.4-28.59-.4-28.59 44.12-21.9.86-30.72.86-30.72s17.82-4.88 18.27-13.34c.18-3.38.29-7.68-8.79-12-20-9.4-40.57-10.62-58-9.52-19.28 1.22-32.53 7-32.53 7Z" class="colordd8c7a svgShape"></path><path fill="#99ddf5" d="M2581.62 993s45.91 8.25 1.79 30.16c0 0 37 18.39-1.21 27.56-16.49 4-39.44 3.41-56.23 1.21a33.18 33.18 0 0 1-5.33-1.14c-21.46-9.22-27.84-64.71-15.86-80 12.27-15.63 61.25-8.55 81.68-4.8a27.92 27.92 0 0 1 11.79 5c3.48 2.62 6.43 6.24 4.32 10.31-4.23 8.18-20.95 11.7-20.95 11.7Z" class="colorf5ae99 svgShape"></path><path fill="#76bdd6" d="M2905.18 1398.14c-18.67 7-41.91 13.8-64.12 14.73a39.55 39.55 0 0 1-41.27-38.38l-.66-23.31-6.46-231.46a5.38 5.38 0 0 1 8.3-4.67l1.54 1a9.08 9.08 0 0 0 13.11-3.66 5.39 5.39 0 0 1 9.78.18l68 155.34 33.9 77.42a39.5 39.5 0 0 1-22.12 52.81Z" class="color76d6b6 svgShape"></path><path fill="#4e9ab5" d="M2905.18 1398.14c-18.67 7-41.91 13.8-64.12 14.73a39.55 39.55 0 0 1-41.27-38.38l-.66-23.31s21.13 37 71.61 14.36 3.83-92.41 3.83-92.41l18.86-5.22 33.9 77.42a39.5 39.5 0 0 1-22.15 52.81Z" class="color4eb593 svgShape"></path><path fill="#69b2cc" d="M2811.75 1128.66c19.79-63.83 38.22-112.25 54.2-148.62a236 236 0 0 1 46.9-69.66 237.23 237.23 0 0 1 98.7-60.86q7.27-2.29 14.74-4.14c85.59-21.09 155.62-21 210-12.37l.71.11a397.24 397.24 0 0 1 43.49 9.43 227 227 0 0 1 87.38 46.73 229.38 229.38 0 0 1 51.55 63.72c27.06 49.47 60 126 75.89 225.83 0 0 42.13 223.53-87.77 250.42v.08l6.42 18.88 12 35.31a388.69 388.69 0 0 1 18.16 80.55l2.21 19c-37.9 12-73.58 21.91-107.09 30.11-301.3 73.67-427.68 6.26-427.68 6.26a389.32 389.32 0 0 1-10-59.72 390.59 390.59 0 0 1-.82-57.25l6.37-105.18 67.82-23.79Z" class="color69ccae svgShape"></path><path fill="#99ddf5" d="m3186.73 830.1-28.15 41.9-87-4.89-9.35-30-2.29-9.2-4.33-17.45-.08-.32a8.35 8.35 0 0 0-.84-2.27 6.85 6.85 0 0 0-.71-1.07 4.65 4.65 0 0 0-.68-.8c-.17-.18-.37-.35-.56-.52l-.61-.47a8.32 8.32 0 0 0-2.76-1.25 6.89 6.89 0 0 0-1.5-.23 8.18 8.18 0 0 0-4.06.79c-2.88 1.4-5.91 2.76-9.12 4.05-1 .41-2 .79-2.94 1.17s-2.14.81-3.24 1.2a191.89 191.89 0 0 1-19.08 5.74c-18.27 4.5-32.52.92-43.6-7.46a27.66 27.66 0 0 1-2.43-2 51.9 51.9 0 0 1-3.44-3.2q-2.22-2.25-4.26-4.76l-.11-.13c-12.21-15.13-19.26-36.91-23.33-57.3a306.15 306.15 0 0 1-5.56-52.1v-3.29l1-61.7.14-9.69a32.19 32.19 0 0 1 .35-3.75c.76-5.35 2.76-13.31 5.73-13.93l131.73-78.94c3.21-.67 31.7 55.75 33.66 58.36l31.38 42.27 11.53 15.54 25.7 34.6a8.53 8.53 0 0 1 1.58 6.18l-5.22 36.36a91.15 91.15 0 0 0 1.78 35.09Z" class="colorf5ae99 svgShape"></path><circle cx="3051.26" cy="702.11" r="27.11" fill="#71d2f4" class="colorf48a71 svgShape"></circle><path fill="#71d2f4" d="M2932.23 741.67a38.9 38.9 0 0 0 7.15-31.86c-1.73-8.17-6.81-15-12.7-20.24a305.82 305.82 0 0 0 5.55 52.1Z" class="colorf48a71 svgShape"></path><path fill="#6ab2cc" d="M3060 828.05c45.79-33.41 33.63-52.88-24.94-26.17-55.87 25.53-77.58-1-79.33-2.79 12.11 15 29.33 23.4 53.72 17.38a174.73 174.73 0 0 0 34.39-12.14 8.32 8.32 0 0 1 11.72 5.81Z" class="colorcc766a svgShape"></path><path fill="#3f6f80" d="M3029.07 642.08a64.92 64.92 0 0 0-40.84-5.48 2.94 2.94 0 0 0-2 3.59 3 3 0 0 0 3.59 2 58.27 58.27 0 0 1 36.34 4.89 3 3 0 0 0 4-1 3 3 0 0 0-1-4ZM2950.25 636a36.76 36.76 0 0 0-19.31 8.58 2.93 2.93 0 0 0 0 4.14 3 3 0 0 0 4.13 0l.88-.74c.27-.21.3-.23.08-.07l.46-.34q.93-.68 1.89-1.29a32.57 32.57 0 0 1 4-2.17l.52-.23c-.26.1-.23.09.09 0l1.07-.41a34.24 34.24 0 0 1 4.4-1.25l1.13-.22c.1 0 1.22-.18.63-.11 1.51-.2 3-1.2 2.93-2.92-.07-1.41-1.3-3.14-2.93-2.93Z" class="color80433f svgShape"></path><circle cx="3004.52" cy="666.88" r="11.89" fill="#3f6f80" class="color80433f svgShape"></circle><circle cx="2945.9" cy="675.29" r="11.46" fill="#3f6f80" class="color80433f svgShape"></circle><path fill="#7ac3dd" d="m2969.82 685.82-15.58 37.38a3.85 3.85 0 0 0 2.49 5.17l14.2 4.07a3.83 3.83 0 0 0 4.88-4l-3.13-42.18a1.49 1.49 0 0 0-2.86-.44Z" class="colordd8c7a svgShape"></path><path fill="#3f6f80" d="m2976.91 756.6 41.55-18.66a2.07 2.07 0 0 1 2.9 1.6c.8 5.52 1.4 18.27-8 26.33-8.51 7.33-21.19 7.1-29.89 0l-7.06-5.77a2.07 2.07 0 0 1 .5-3.5Z" class="color80433f svgShape"></path><path fill="#7ac3dd" d="m3130.6 618.9-31.38-42.27c-2-2.61-30.45-59-33.66-58.36l-131.73 78.94c-3 .62-5 8.58-5.73 13.93 0 0 77.17-19.51 135.14 8.64 0 0 44.21 20.07 40.34 61.72Z" class="colordd8c7a svgShape"></path><path fill="#ffffff" d="m3092.47 874.75 37 46.59a3.93 3.93 0 0 0 6.32-.21l64.69-93.67a3.92 3.92 0 0 0 .31-4l-11.88-24.74a3.94 3.94 0 0 0-6-1.37l-89.82 71.83a3.93 3.93 0 0 0-.62 5.57Z" class="colorffffff svgShape"></path><path fill="#ffffff" d="M3090.64 868.48 3058.48 828a2 2 0 0 0-3.27.08l-10.32 14.56a2 2 0 0 0-.37 1.33l5 68.66a2 2 0 0 0 3.53 1.26l37.36-39.89a4.21 4.21 0 0 0 .23-5.52Z" class="colorffffff svgShape"></path><path fill="#1f5a6f" d="M3446.36 1583.1c-37.9 12-73.58 21.91-107.1 30.11-301.29 73.67-427.67 6.26-427.67 6.26q-4.12-16.63-6.77-33.54-2-13-3.19-26.17a386.77 386.77 0 0 1-1.38-43.61c.1-4.54.29-9.1.56-13.64l5.92-100.15s-37.76-310 6.13-492a236.88 236.88 0 0 1 82.26-55q8.07-3.24 16.44-5.87s6.65 67.53 40.11 110.4c16.46 21.1 46.3 26.09 69.12 12.13 33.78-20.66 85.49-62.85 115.47-139l.7.11q10.86 1.74 20.86 3.88 11.91 2.57 22.64 5.55a227.15 227.15 0 0 1 87.38 46.73c-9.94 65.29-26.94 213.17-6.37 363.07 8.28 60.41 22.67 121.14 46.08 177v.07l6.41 18.88 12 35.31a389.84 389.84 0 0 1 15.11 59.34q1.82 10.56 3.05 21.21Z" class="color1f296f svgShape"></path><path fill="#153e4c" d="M3446.36 1583.1c-37.9 12-73.58 21.91-107.1 30.11-301.29 73.67-427.67 6.26-427.67 6.26q-4.12-16.63-6.77-33.54-2-13-3.19-26.17a386.77 386.77 0 0 1-1.38-43.61h.32s36.28 93.72 216.66 52.4 223.44-58 244.23-316.2c8.28 60.41 22.67 121.14 46.08 177v.07l6.41 18.88 12 35.31a389.84 389.84 0 0 1 15.11 59.34q1.82 10.56 3.05 21.21Z" class="color151f4c svgShape"></path><path fill="#4a9ebc" d="M3446.36 1583.1c-37.91 12-73.58 21.91-107.1 30.11-301.29 73.67-427.67 6.26-427.67 6.26q-4.12-16.65-6.77-33.55s144.94 47.81 360.42 0c82.85-18.37 138.61-32.54 175.85-43q1.83 10.56 3.06 21.21ZM3257.81 837c-9.22 48.51-105.18 193.14-179.43 170.51s-83.27-152.12-83.27-152.12c5.38-2.15 10.87-4.1 16.43-5.87 0 0 6.66 67.53 40.12 110.41 16.46 21.1 46.29 26.09 69.11 12.13 33.78-20.66 85.5-62.85 115.48-139l.7.11c7.23 1.09 14.19 2.4 20.86 3.83Z" class="color7f4abc svgShape"></path><path d="M3165.1 729.12c-.65 9.42 5.9 37.76 5.9 37.76a57 57 0 0 1-21.89-36.88l-10.77-82.54-17.28 46.22a9.6 9.6 0 0 1-18.73-3 9.84 9.84 0 0 1 .11-1.43l4.24-28.7a28.74 28.74 0 0 0-10-26.28L3069.86 612a65.93 65.93 0 0 0-38.26-15.16c-27.65-1.64-74.36-3-98.51 4.53-18.83 5.85-53.05-27.18-60.28-63.39-6.24-31.21 7.58-64.78 68.61-77.86a4 4 0 0 1 4.58 5.2c-2.7 7.44-4.56 11.84 6.52 15.65 16.07 5.51 42.91-22.53 110.36-9.28a3.92 3.92 0 0 1 1.19 7.26 99.57 99.57 0 0 0-11.74 7.69 3.92 3.92 0 0 0 2 7c33.62 3.82 155.65 26.26 128.56 149.21-.05-.04-17.14 76.84-17.79 86.27Z" fill="#000000" class="color000000 svgShape"></path><path fill="#3f3f3f" d="M3182.84 642.81C3192.15 565 3113 508.43 3067 504.53s-15.73-26.35-15.73-26.35c-37.5-.77-32.76 1.14-77.44 13.36s-45.06-15.65-45.06-15.65c-45.81 5-56 62.06-56 62.06-6.24-31.21 7.58-64.78 68.61-77.86a4 4 0 0 1 4.58 5.2c-2.7 7.44-4.56 11.84 6.52 15.65 16.07 5.51 42.91-22.53 110.36-9.28a3.92 3.92 0 0 1 1.19 7.26 99.57 99.57 0 0 0-11.74 7.69 3.92 3.92 0 0 0 2 7c33.61 3.81 155.64 26.25 128.55 149.2Z" class="color3f3f3f svgShape"></path><path fill="#3f3f3f" d="M2925.2 583.54c-13.44-13.67-37.61-44.81-16.94-76.12a1.28 1.28 0 0 1 2.32 1c-2.95 12.06-5.11 38.42 16.61 73.53a1.28 1.28 0 0 1-1.99 1.59ZM2959.75 576.79c-3.71-20-5.71-64.76 46.55-76.37a1.24 1.24 0 0 1 .82 2.31c-15.6 7.67-42.89 27.64-44.93 73.88a1.23 1.23 0 0 1-2.44.18ZM2998.94 571.07c12.68-19.31 45.06-52.89 102.25-15.3a1.27 1.27 0 0 0 .89.19c4.92-.8 46.46-6.12 53.08 42a1.25 1.25 0 0 1-2.42.6c-5.91-16.29-20.74-43.84-52.13-36.79a1.23 1.23 0 0 1-1.06-.24c-5.06-4.11-51.72-39.52-98.66 11.07a1.25 1.25 0 0 1-1.95-1.53Z" class="color3f3f3f svgShape"></path><path fill="#99ddf5" d="M3118.65 709.92s60-18.11 53-47.84c-5.53-23.4-33.63-13.54-33.63-13.54Z" class="colorf5ae99 svgShape"></path><path fill="#6ab2cc" d="M3138.59 649a37 37 0 0 1 16.18-1.17 19 19 0 0 1 16 20.53c-.7 8.87-7.36 15.93-14 21.14a109.56 109.56 0 0 1-23.91 13.61 138 138 0 0 1-14.72 5.54c-1.77.53-.64 3.18 1.11 2.65 14-4.24 28.25-10.78 39.72-19.88 7-5.56 13.81-13.11 14.66-22.43.93-10.05-4.89-20.06-14.66-23.11-6.79-2.13-14.69-1.65-21.44.48-1.76.55-.64 3.19 1.11 2.64Z" class="colorcc766a svgShape"></path><path fill="#6ab2cc" d="M3147.08 662.18a5.29 5.29 0 0 1 4.89 8.45c-3 4-8.53.9-12.65 1.9a6.24 6.24 0 0 0-4.29 3.23c-1 2-.6 4.29-1.18 6.37a11.38 11.38 0 0 1-9.18 8 1.43 1.43 0 0 0 .38 2.84 14.2 14.2 0 0 0 9.55-5.9 13.85 13.85 0 0 0 2.22-5.1c.41-2-.11-4.83 1.77-6.1s4.23-.73 6.23-.5a11.52 11.52 0 0 0 6.5-.6 8.15 8.15 0 0 0-4.61-15.46 1.44 1.44 0 0 0 .37 2.85Z" class="colorcc766a svgShape"></path><path fill="#41afd6" d="M3022.41 1268.72h-257.12a21.36 21.36 0 0 1-20.16-14.31l-71.39-204.1a21.37 21.37 0 0 1 20.17-28.42H2951a21.37 21.37 0 0 1 20.17 14.31l71.39 204.11a21.37 21.37 0 0 1-20.15 28.41Z" class="colord64f41 svgShape"></path><path fill="#5dcdf5" d="M3016.25 1273.13h-257.12a21.35 21.35 0 0 1-20.16-14.32l-71.39-204.1a21.37 21.37 0 0 1 20.17-28.42h257.11a21.37 21.37 0 0 1 20.14 14.31l71.38 204.11a21.36 21.36 0 0 1-20.13 28.42Z" class="colorf5715d svgShape"></path><path fill="#99ddf5" d="m3407.54 1429.28-17.71-6.27-341.2-120.75a161.06 161.06 0 0 1-58.63-36.46l-32-31.17a24.67 24.67 0 0 0-14.19-6.82c-31.75-3.91-41.52-10.47-44.16-15.23a3.44 3.44 0 0 1-.41-1.19 3.85 3.85 0 0 1 4-4.38c7.93.49 26.81 1 43.66-3.51 1-.27 1.87-.54 2.68-.8 10.54-3.51 7.28-7.64 3.1-10.37a22.61 22.61 0 0 0-9.3-3.35c-37.82-5.17-51-13.94-55.57-19.29a2.66 2.66 0 0 1-.67-1.76 2.84 2.84 0 0 1 2.82-2.84l46-.24a51 51 0 0 0 10.1-1c20.73-4.33-.86-13.33-38.12-23.39-20.51-5.53-28.82-10.79-32-14.62a3.5 3.5 0 0 1-.84-2.29 3.69 3.69 0 0 1 3.78-3.72l56.75 1.24h1.1a2 2 0 0 0 .74-.11 2.08 2.08 0 0 0 .47-3.69 47.09 47.09 0 0 0-11.24-5.2 46.62 46.62 0 0 0-6.39-1.59c-29.07-5.28-40.5-14-45-19.71a3.69 3.69 0 0 1 2.74-6c15.18-.65 58.15-1.75 93.2 4.32 29.22 5.07 60 52.18 77 82.32a49.22 49.22 0 0 0 38.87 24.89l307.71 25.3Z" class="colorf5ae99 svgShape"></path><path fill="#7ac3dd" d="M2949.62 1202.7c10.54-3.51 7.29-7.64 3.1-10.36a22.63 22.63 0 0 0-9.29-3.36c-37.83-5.17-51-13.94-55.58-19.29a2.66 2.66 0 0 1-.67-1.76s21.95 16.56 62 16.49a12.7 12.7 0 0 1 11.39 6.86c2.11 4.23 1.43 9.23-10.95 11.42ZM2946.09 1163.83c20.73-4.33-.85-13.33-38.12-23.38-20.51-5.55-28.81-10.79-32-14.63a3.51 3.51 0 0 1-.85-2.29s20.33 11 56.88 18.72c36.38 7.67 30.63 21.62 14.09 21.58ZM2937.51 1121a2.08 2.08 0 0 0 .47-3.69 50.37 50.37 0 0 0-17.63-6.8c-29.07-5.27-40.5-14-45-19.7a3.68 3.68 0 0 1 2.74-6s-1.1 9 14.76 12.52c15.5 3.41 67.71 22.09 44.66 23.67ZM3389.83 1423l-341.2-120.75a161.06 161.06 0 0 1-58.63-36.45l-32-31.17a24.67 24.67 0 0 0-14.19-6.82c-31.75-3.91-41.52-10.47-44.16-15.23a3.44 3.44 0 0 1-.41-1.19s4.56 7.82 40.88 10.85a54.19 54.19 0 0 1 31.13 13.11c21.91 19.09 65 54.24 87.64 56.81 31.25 3.55 266.52 99.53 325.46 94.07Z" class="colordd8c7a svgShape"></path><path fill="#76bdd6" d="M3495.83 1414.06a55.33 55.33 0 0 1-33.38 50.11c-23.39 10-55.34 15.17-80.91-12a14.84 14.84 0 0 1-3.64-13.47c1.08-4.74 2.31-11.1 3.42-18.71 6.81-46.49 8.94-140-60-201a14.83 14.83 0 0 1-.95-21.15l20.82-28.92a15 15 0 0 1 7.13-4.29 14.78 14.78 0 0 1 3.11-.46 15 15 0 0 1 5.36.74c33.43 11.09 141.75 53.73 139.04 249.15Z" class="color76d6b6 svgShape"></path><path fill="#4e9ab5" d="M3495.83 1414.06a55.33 55.33 0 0 1-33.38 50.11c-23.39 10-55.34 15.17-80.91-12a14.84 14.84 0 0 1-3.64-13.47c1.08-4.74 2.31-11.1 3.42-18.71s19.05 32.81 52.19 25 61.65-81 29.42-157.87-114.61-122.49-114.61-122.49l3.11-.46a15 15 0 0 1 5.36.74c33.43 11.09 141.75 53.73 139.04 249.15Z" class="color4eb593 svgShape"></path><path fill="#afd1dd" d="M3887.18 516.68h-554a34.64 34.64 0 0 0-34.64 34.64v112.22l-43.7 67.64a10.57 10.57 0 0 0 11.78 15.63l117.79-32.94h486.88a50.54 50.54 0 0 0 50.54-50.54v-112a34.64 34.64 0 0 0-34.65-34.65Z" class="colorafbddd svgShape"></path><path fill="#22c5ff" d="M3872.56 501h-554a34.65 34.65 0 0 0-34.65 34.65v112.17l-43.7 67.65A10.57 10.57 0 0 0 3252 731.1l117.79-32.94h502.78a34.64 34.64 0 0 0 34.64-34.64V535.61a34.64 34.64 0 0 0-34.65-34.61Z" class="colorffaf22 svgShape"></path><circle cx="3516.45" cy="608.53" r="17.69" fill="#ffffff" class="colorffffff svgShape"></circle><circle cx="3594.54" cy="608.53" r="17.69" fill="#ffffff" class="colorffffff svgShape"></circle><circle cx="3672.64" cy="608.53" r="17.69" fill="#ffffff" class="colorffffff svgShape"></circle><circle cx="2558.21" cy="638.31" r="171.98" fill="#4d9fbc" class="color4dbc9a svgShape"></circle><circle cx="2558.21" cy="638.31" r="146.42" fill="#6cbcd8" class="color6cd8ba svgShape"></circle><path fill="#1f5a6f" d="M2558 729.38a140.91 140.91 0 0 1-34.54-4.17 89.47 89.47 0 0 1-28.8-12.51q-5-3.39-6-8.21a13.35 13.35 0 0 1 .91-8.87 10.82 10.82 0 0 1 6-5.6q4-1.56 9.25 1.82a87.28 87.28 0 0 0 24.77 11.08 108.59 108.59 0 0 0 28.41 3.52q22.15 0 32.72-8t10.56-20.72q0-10.42-7.56-16.56t-25.29-9.77l-27.89-5.74q-24.78-5.21-36.89-17.2t-12.12-32.33a49.28 49.28 0 0 1 8.73-28.93q8.73-12.51 24.37-19.42t36-6.91a107.42 107.42 0 0 1 30.37 4.17 76.93 76.93 0 0 1 25.41 12.77 11.71 11.71 0 0 1 5.22 7.56 12.19 12.19 0 0 1-1.3 8.21 10.46 10.46 0 0 1-6.26 5.09q-4.17 1.31-9.65-2.09a73.13 73.13 0 0 0-20.85-9.77 85.62 85.62 0 0 0-23.2-3q-19.29 0-30.63 8.6a27.37 27.37 0 0 0-11.34 22.94q0 11 7 17.47t23.46 9.9l27.63 5.74q26.07 5.47 38.84 16.81t12.78 30.63q0 16.17-8.61 28.16t-24.24 18.63q-15.63 6.71-37.26 6.7Z" class="color1f296f svgShape"></path><rect width="16.13" height="240.68" x="2527.5" y="517.47" fill="#1f5a6f" rx="8.07" class="color1f296f svgShape"></rect><rect width="16.13" height="240.68" x="2570.55" y="517.47" fill="#1f5a6f" rx="8.07" class="color1f296f svgShape"></rect><circle cx="3792.96" cy="1220.62" r="182.53" fill="#69d8ff" class="colorffe269 svgShape"></circle><path fill="#61ccf2" d="M3793 1378.77c-87.2 0-158.15-71-158.15-158.15s71-158.15 158.15-158.15 158.15 70.94 158.15 158.15-70.99 158.15-158.15 158.15Zm0-310.81c-84.17 0-152.65 68.48-152.65 152.66s68.48 152.65 152.65 152.65 152.65-68.48 152.65-152.65S3877.13 1068 3793 1068Z" class="colorf28c61 svgShape"></path><path fill="#61ccf2" d="M3798.39 1312.25q-26.26 0-45.33-11.33a75.14 75.14 0 0 1-29.32-32q-10.26-20.69-10.25-48.39 0-41.73 22.66-65.66t62.24-23.92a95.63 95.63 0 0 1 27 4.13 72.84 72.84 0 0 1 25.54 13.5q6.1 4.31 5.22 10.79a13 13 0 0 1-6.12 9.71q-5.22 3.24-12.05-1.44a62 62 0 0 0-37.78-12.95q-27.34 0-42.09 17.09t-14.75 49.11q0 31.31 14.75 49.47t42.09 18.17a62 62 0 0 0 37.78-13q6.83-4.68 11.87-1.26a12.56 12.56 0 0 1 5.58 9.89c.36 4.32-1.39 7.8-5.22 10.43a73.39 73.39 0 0 1-25.18 13.5 92 92 0 0 1-26.64 4.16Z" class="colorf28c61 svgShape"></path><rect width="113.56" height="19.79" x="3686.04" y="1197.81" fill="#61ccf2" rx="9.9" class="colorf28c61 svgShape"></rect><rect width="113.56" height="19.79" x="3686.04" y="1235.13" fill="#61ccf2" rx="9.9" class="colorf28c61 svgShape"></rect><path fill="#589eb7" d="M3823.58 2043.19s-3.3-126.21 37.14-217.59 67-149.61 70.93-170.08c0 0 23.17 91.86 36.91 144 30.3 115.14 30.24 201.73-26.75 285.92 0 0-6.43 49.09-7.11 51.2s-56.9 43.73-56.9 43.73l-69.67-56Z" class="color58b79a svgShape"></path><path fill="#b1e1f2" d="M3855.62 2193.38s18.92-264.5 57.53-415.88c0 0-35.62 276-15.24 408.05Z" class="colorb1f2da svgShape"></path><path fill="#b1e1f2" d="m3858.86 2125-.29 67.09-.28 74.47 25.25 4.16s10.14-10.26 25.33-23.88c23.44-21 58.86-49.82 87.54-61 47.24-18.47 121.21-90.17 177.58-218.76q3-6.78 6.16-13c58-113.45 162.7-84.36 162.7-84.36-85.21-27.76-157.69-26.66-218.59-9.14-188.03 54.05-265.4 264.42-265.4 264.42Z" class="colorb1f2da svgShape"></path><path fill="#589eb7" d="m3858.57 2192.05-.28 74.47 25.25 4.16s10.14-10.26 25.33-23.88c170.58-332.62 278.21-374.05 281.58-375.3-163.04 37.99-289.18 242.72-331.88 320.55Z" class="color58b79a svgShape"></path><path fill="#4a9ebc" d="m3919.65 2206.75-21.23 63.64-23.6 70.64-25.25-4.15s-6.32-13-16.34-30.74c-15.49-27.35-39.79-66-63.37-85.86-38.83-32.64-85.91-124.26-98.1-264.13-.45-4.92-1-9.67-1.69-14.24-18.53-126-127.08-132.06-127.08-132.06 89.62 1 157.92 25.29 210 61.4 160.77 111.47 166.66 335.5 166.66 335.5Z" class="color7f4abc svgShape"></path><path fill="#82d4f1" d="m3898.42 2270.39-23.6 70.64-25.25-4.15s-6.32-13-16.34-30.74c-55-369.74-143.66-443.49-146.46-445.75 142.28 88.24 196.15 322.61 211.65 410Z" class="colora382f1 svgShape"></path><path fill="#82d4f1" d="M4288.76 2488c-53.66-59.18-233.73-235.31-419.14-164q-10.38 4-20.78 9a22.07 22.07 0 0 1-7.77 2.26c-4.1.35-9.43-.35-12.24-5.46a12.79 12.79 0 0 1 .78-12.95 401.7 401.7 0 0 1 51.3-62.81c52-52 138.24-108.61 244-65.45 141.66 57.79 171.85 228.49 178.26 293a8.31 8.31 0 0 1-14.41 6.41Z" class="colora382f1 svgShape"></path><path fill="#4a9ebc" d="M4227.22 2340.35c-10.53-14.68-160.58-203.3-357.6-16.33q-10.38 4-20.78 9a22.07 22.07 0 0 1-7.77 2.26c-4.1.35-9.43-.35-12.24-5.46a12.79 12.79 0 0 1 .78-12.95s212.21-234.87 397.61 23.48Z" class="color7f4abc svgShape"></path><path fill="#195b72" d="M4227.78 2341.13c-.19-.27-.35-.53-.56-.78.3.39.47.65.56.78Z" class="color3c7219 svgShape"></path><path fill="#b1e1f2" d="M3410.92 2206.68c80.27-9.16 334.6-22.87 427.91 155q5.24 9.93 9.77 20.71a22.61 22.61 0 0 0 4.4 6.9c2.89 3 7.4 6 12.94 4A12.94 12.94 0 0 0 3874 2383a407.48 407.48 0 0 0 2.92-82c-4.81-74.21-32.59-174.76-141.75-212.52-146.21-50.6-283 59-330.91 103.68a8.4 8.4 0 0 0 6.66 14.52Z" class="colorb1f2da svgShape"></path><path fill="#589eb7" d="M3556.18 2135.55c17.91-3.66 257.67-47.35 282.65 226.17q5.24 9.93 9.77 20.71a22.61 22.61 0 0 0 4.4 6.9c2.89 3 7.4 6 12.94 4A12.94 12.94 0 0 0 3874 2383a407.48 407.48 0 0 0 2.92-82c-24.02-92.41-97.31-218.23-320.74-165.45Z" class="color58b79a svgShape"></path><path fill="#22c5ff" d="M4027.55 2332v.05l-19.75 174-16.34 144h-256.89l-11.65-96.61-26.7-221.31a25.2 25.2 0 0 1 25-28.23h281.24a25.22 25.22 0 0 1 25.09 28.1Z" class="colorffaf22 svgShape"></path><path fill="#1dabdd" d="m4007.79 2506.08-16.34 144h-256.88l-11.65-96.61-26.7-221.31a25.11 25.11 0 0 1 1.18-11.21c-.63 2.12 45.77 284.54 130 301 89.21 17.41 156.75-30.71 180.39-115.87Z" class="colordd931d svgShape"></path><path fill="#4d595d" d="M344.2 2659.67h3790.91c51.21 0 102.48.74 153.68 0h6.72c9.39 0 9.4-14.59 0-14.59H504.6c-51.21 0-102.48-.73-153.68 0h-6.72c-9.39 0-9.41 14.59 0 14.59Z" class="color524d5d svgShape"></path></g></svg>