<svg width="120" height="90" viewBox="0 0 120 90" fill="none" xmlns="http://www.w3.org/2000/svg">
<path d="M48.2014 77.5539C66.4785 77.5539 81.295 62.7375 81.295 44.4604C81.295 26.1834 66.4785 11.3669 48.2014 11.3669C29.9244 11.3669 15.1079 26.1834 15.1079 44.4604C15.1079 62.7375 29.9244 77.5539 48.2014 77.5539Z" fill="url(#paint0_linear_3_95)"/>
<path d="M80.2159 14.5324C81.2887 14.5324 82.1583 13.6627 82.1583 12.5899C82.1583 11.5171 81.2887 10.6475 80.2159 10.6475C79.1431 10.6475 78.2734 11.5171 78.2734 12.5899C78.2734 13.6627 79.1431 14.5324 80.2159 14.5324Z" fill="url(#paint1_linear_3_95)"/>
<path d="M73.5972 8.77698C74.1932 8.77698 74.6763 8.29383 74.6763 7.69784C74.6763 7.10185 74.1932 6.61871 73.5972 6.61871C73.0012 6.61871 72.5181 7.10185 72.5181 7.69784C72.5181 8.29383 73.0012 8.77698 73.5972 8.77698Z" fill="url(#paint2_linear_3_95)"/>
<path d="M85.6835 21.5827C87.0742 21.5827 88.2015 20.4554 88.2015 19.0647C88.2015 17.6741 87.0742 16.5468 85.6835 16.5468C84.2929 16.5468 83.1655 17.6741 83.1655 19.0647C83.1655 20.4554 84.2929 21.5827 85.6835 21.5827Z" fill="url(#paint3_linear_3_95)"/>
<path d="M90.8633 32.6619C93.0486 32.6619 94.8202 30.8903 94.8202 28.705C94.8202 26.5197 93.0486 24.7482 90.8633 24.7482C88.678 24.7482 86.9065 26.5197 86.9065 28.705C86.9065 30.8903 88.678 32.6619 90.8633 32.6619Z" fill="url(#paint4_linear_3_95)"/>
<path d="M56.2118 70.3597L55.0146 66.9295H55.6961L56.6354 69.7704H56.5018L57.4411 66.9295H58.1226L56.93 70.3597H56.2118ZM59.1965 70.3597V66.9295H59.8227V70.3597H59.1965ZM62.7847 70.415C62.5391 70.415 62.3121 70.3705 62.1033 70.2814C61.8977 70.1924 61.7165 70.0681 61.56 69.9085C61.4064 69.7489 61.2867 69.5616 61.2008 69.3468C61.1149 69.1319 61.0719 68.8971 61.0719 68.6423C61.0719 68.3875 61.1134 68.1527 61.1962 67.9378C61.2821 67.7198 61.4018 67.5327 61.5554 67.3761C61.7119 67.2165 61.8945 67.0937 62.1033 67.0078C62.3121 66.9187 62.5391 66.8742 62.7847 66.8742C63.0303 66.8742 63.2498 66.9157 63.4431 66.9986C63.6395 67.0814 63.8053 67.1919 63.9404 67.3301C64.0755 67.4652 64.1722 67.6139 64.2305 67.7767L63.6687 68.0391C63.6043 67.8672 63.4954 67.726 63.3418 67.6155C63.1883 67.502 63.0027 67.4452 62.7847 67.4452C62.5699 67.4452 62.3795 67.4958 62.2138 67.5971C62.0511 67.6984 61.9237 67.8381 61.8316 68.0161C61.7426 68.1941 61.6981 68.4029 61.6981 68.6423C61.6981 68.8817 61.7426 69.0919 61.8316 69.2731C61.9237 69.4511 62.0511 69.5908 62.2138 69.6921C62.3795 69.7934 62.5699 69.844 62.7847 69.844C63.0027 69.844 63.1883 69.7888 63.3418 69.6783C63.4954 69.5647 63.6043 69.422 63.6687 69.2501L64.2305 69.5125C64.1722 69.6752 64.0755 69.8256 63.9404 69.9637C63.8053 70.0988 63.6395 70.2078 63.4431 70.2906C63.2498 70.3735 63.0303 70.415 62.7847 70.415ZM66.0372 70.3597V67.482H65.1486V66.9295H67.5429V67.482H66.668V70.3597H66.0372ZM70.166 70.415C69.9144 70.415 69.6795 70.3705 69.4616 70.2814C69.2437 70.1924 69.0534 70.0681 68.8906 69.9085C68.728 69.7489 68.6005 69.5616 68.5085 69.3468C68.4195 69.1288 68.3749 68.8939 68.3749 68.6423C68.3749 68.3875 68.4195 68.1527 68.5085 67.9378C68.5975 67.723 68.7234 67.5357 68.886 67.3761C69.0487 67.2165 69.2391 67.0937 69.457 67.0078C69.6749 66.9187 69.9113 66.8742 70.166 66.8742C70.4208 66.8742 70.6572 66.9187 70.8751 67.0078C71.0931 67.0968 71.2834 67.2211 71.446 67.3807C71.6087 67.5373 71.7346 67.723 71.8236 67.9378C71.9157 68.1527 71.9617 68.3875 71.9617 68.6423C71.9617 68.8939 71.9157 69.1288 71.8236 69.3468C71.7315 69.5616 71.6041 69.7489 71.4414 69.9085C71.2788 70.0681 71.0885 70.1924 70.8705 70.2814C70.6557 70.3705 70.4208 70.415 70.166 70.415ZM70.166 69.844C70.3349 69.844 70.4899 69.8148 70.6311 69.7565C70.7723 69.6951 70.8951 69.6108 70.9994 69.5033C71.1069 69.3958 71.1882 69.2685 71.2434 69.1211C71.3018 68.9738 71.3309 68.8142 71.3309 68.6423C71.3309 68.4704 71.3018 68.3124 71.2434 68.1681C71.1882 68.0207 71.1069 67.8934 70.9994 67.7859C70.8951 67.6754 70.7723 67.5909 70.6311 67.5327C70.4899 67.4744 70.3349 67.4452 70.166 67.4452C70.0003 67.4452 69.8469 67.4744 69.7056 67.5327C69.5644 67.5909 69.4401 67.6754 69.3326 67.7859C69.2283 67.8934 69.147 68.0207 69.0886 68.1681C69.0303 68.3124 69.0011 68.4704 69.0011 68.6423C69.0011 68.8142 69.0303 68.9738 69.0886 69.1211C69.147 69.2685 69.2283 69.3958 69.3326 69.5033C69.4401 69.6108 69.5644 69.6951 69.7056 69.7565C69.8469 69.8148 70.0003 69.844 70.166 69.844ZM73.2092 70.3597V66.9295H74.4846C74.7178 66.9295 74.9236 66.9725 75.1016 67.0584C75.2827 67.1413 75.4239 67.264 75.5252 67.4268C75.6265 67.5863 75.6771 67.7813 75.6771 68.0115C75.6771 68.2479 75.6203 68.4489 75.5067 68.6147C75.3962 68.7804 75.2459 68.9032 75.0555 68.983L75.8428 70.3597H75.1338L74.2912 68.8541L74.6964 69.0935H73.8354V70.3597H73.2092ZM73.8354 68.541H74.4938C74.6073 68.541 74.7056 68.5196 74.7885 68.4765C74.8713 68.4305 74.9358 68.3676 74.9818 68.2878C75.0279 68.2079 75.0509 68.1158 75.0509 68.0115C75.0509 67.904 75.0279 67.8119 74.9818 67.7352C74.9358 67.6554 74.8713 67.5941 74.7885 67.5511C74.7056 67.505 74.6073 67.482 74.4938 67.482H73.8354V68.541ZM77.7738 70.3597V68.8403L76.6181 66.9295H77.3318L78.2158 68.4213H77.9626L78.842 66.9295H79.5557L78.4046 68.8357V70.3597H77.7738ZM82.1381 70.3597V66.9295H84.4264V67.482H82.7643V68.4305H84.2192V68.983H82.7643V70.3597H82.1381ZM87.1715 70.415C86.9197 70.415 86.6849 70.3705 86.467 70.2814C86.249 70.1924 86.0587 70.0681 85.8961 69.9085C85.7334 69.7489 85.606 69.5616 85.5139 69.3468C85.4249 69.1288 85.3804 68.8939 85.3804 68.6423C85.3804 68.3875 85.4249 68.1527 85.5139 67.9378C85.6029 67.723 85.7287 67.5357 85.8915 67.3761C86.0541 67.2165 86.2444 67.0937 86.4624 67.0078C86.6803 66.9187 86.9167 66.8742 87.1715 66.8742C87.4262 66.8742 87.6626 66.9187 87.8806 67.0078C88.0984 67.0968 88.2887 67.2211 88.4515 67.3807C88.6141 67.5373 88.74 67.723 88.829 67.9378C88.9211 68.1527 88.9672 68.3875 88.9672 68.6423C88.9672 68.8939 88.9211 69.1288 88.829 69.3468C88.7369 69.5616 88.6095 69.7489 88.4469 69.9085C88.2841 70.0681 88.0938 70.1924 87.8759 70.2814C87.661 70.3705 87.4262 70.415 87.1715 70.415ZM87.1715 69.844C87.3403 69.844 87.4952 69.8148 87.6365 69.7565C87.7777 69.6951 87.9004 69.6108 88.0049 69.5033C88.1122 69.3958 88.1936 69.2685 88.2489 69.1211C88.3072 68.9738 88.3364 68.8142 88.3364 68.6423C88.3364 68.4704 88.3072 68.3124 88.2489 68.1681C88.1936 68.0207 88.1122 67.8934 88.0049 67.7859C87.9004 67.6754 87.7777 67.5909 87.6365 67.5327C87.4952 67.4744 87.3403 67.4452 87.1715 67.4452C87.0057 67.4452 86.8522 67.4744 86.7111 67.5327C86.5698 67.5909 86.4454 67.6754 86.3381 67.7859C86.2336 67.8934 86.1523 68.0207 86.0941 68.1681C86.0357 68.3124 86.0066 68.4704 86.0066 68.6423C86.0066 68.8142 86.0357 68.9738 86.0941 69.1211C86.1523 69.2685 86.2336 69.3958 86.3381 69.5033C86.4454 69.6108 86.5698 69.6951 86.7111 69.7565C86.8522 69.8148 87.0057 69.844 87.1715 69.844ZM90.2146 70.3597V66.9295H91.49C91.7233 66.9295 91.9289 66.9725 92.107 67.0584C92.288 67.1413 92.4293 67.264 92.5306 67.4268C92.6319 67.5863 92.6826 67.7813 92.6826 68.0115C92.6826 68.2479 92.6257 68.4489 92.5122 68.6147C92.4017 68.7804 92.2512 68.9032 92.061 68.983L92.8483 70.3597H92.1392L91.2967 68.8541L91.7018 69.0935H90.8408V70.3597H90.2146ZM90.8408 68.541H91.4992C91.6128 68.541 91.7111 68.5196 91.7939 68.4765C91.8768 68.4305 91.9413 68.3676 91.9873 68.2878C92.0334 68.2079 92.0564 68.1158 92.0564 68.0115C92.0564 67.904 92.0334 67.8119 91.9873 67.7352C91.9413 67.6554 91.8768 67.5941 91.7939 67.5511C91.7111 67.505 91.6128 67.482 91.4992 67.482H90.8408V68.541ZM95.1774 70.3597L96.3008 68.6331L95.1866 66.9295H95.9049L96.8165 68.3246H96.485L97.3921 66.9295H98.1103L97.0007 68.6331L98.1195 70.3597H97.4013L96.485 68.9462H96.8165L95.8956 70.3597H95.1774ZM99.8007 70.3597V67.482H98.9121V66.9295H101.306V67.482H100.431V70.3597H99.8007ZM102.379 70.3597V66.9295H103.654C103.888 66.9295 104.093 66.9725 104.271 67.0584C104.453 67.1413 104.594 67.264 104.695 67.4268C104.796 67.5863 104.847 67.7813 104.847 68.0115C104.847 68.2479 104.79 68.4489 104.677 68.6147C104.566 68.7804 104.416 68.9032 104.225 68.983L105.013 70.3597H104.304L103.461 68.8541L103.866 69.0935H103.005V70.3597H102.379ZM103.005 68.541H103.664C103.777 68.541 103.876 68.5196 103.958 68.4765C104.041 68.4305 104.106 68.3676 104.152 68.2878C104.198 68.2079 104.221 68.1158 104.221 68.0115C104.221 67.904 104.198 67.8119 104.152 67.7352C104.106 67.6554 104.041 67.5941 103.958 67.5511C103.876 67.505 103.777 67.482 103.664 67.482H103.005V68.541ZM106.114 70.3597V66.9295H108.393V67.482H106.74V68.3614H108.301V68.9139H106.74V69.8072H108.393V70.3597H106.114ZM109.543 70.3597V66.9295H110.141L111.426 68.6745H111.141L112.398 66.9295H112.996V70.3597H112.365V67.6432L112.609 67.703L111.306 69.4388H111.233L109.962 67.703L110.169 67.6432V70.3597H109.543ZM114.343 70.3597V66.9295H116.622V67.482H114.969V68.3614H116.53V68.9139H114.969V69.8072H116.622V70.3597H114.343Z" fill="#80D9FF"/>
<path fill-rule="evenodd" clip-rule="evenodd" d="M67.3917 73.597C61.8539 77.279 55.2062 79.4245 48.0575 79.4245C28.7474 79.4245 13.0934 63.7705 13.0934 44.4604C13.0934 25.1504 28.7474 9.4964 48.0575 9.4964C63.8704 9.4964 77.2316 19.9938 81.5524 34.4C81.5757 34.1469 81.6018 33.9072 81.631 33.6822C77.0769 19.4849 63.7673 9.20863 48.0575 9.20863C28.5884 9.20863 12.8057 24.9914 12.8057 44.4604C12.8057 63.9295 28.5884 79.7122 48.0575 79.7122C55.4917 79.7122 62.3884 77.4109 68.0742 73.4819C67.7878 73.5578 67.5629 73.5971 67.41 73.5971C67.4038 73.5971 67.3976 73.5971 67.3917 73.597Z" fill="#2C89F7"/>
<path fill-rule="evenodd" clip-rule="evenodd" d="M68.3043 74.9305C62.5104 78.7872 55.5533 81.0348 48.0712 81.0348C27.8794 81.0348 11.5107 64.666 11.5107 44.4742C11.5107 24.2824 27.8794 7.91367 48.0712 7.91367C64.595 7.91367 78.5584 18.8754 83.0863 33.9236C83.1099 33.6717 83.1361 33.4328 83.1653 33.2078C78.4049 18.3676 64.4925 7.6259 48.0712 7.6259C27.7205 7.6259 11.2229 24.1235 11.2229 44.4742C11.2229 64.825 27.7205 81.3226 48.0712 81.3226C55.8422 81.3226 63.0512 78.9171 68.9946 74.8101C68.6977 74.8888 68.4642 74.9298 68.3043 74.9305Z" fill="url(#paint5_linear_3_95)"/>
<mask id="mask0_3_95" style="mask-type:luminance" maskUnits="userSpaceOnUse" x="11" y="7" width="73" height="75">
<path fill-rule="evenodd" clip-rule="evenodd" d="M68.3043 74.9305C62.5104 78.7872 55.5533 81.0348 48.0712 81.0348C27.8794 81.0348 11.5107 64.666 11.5107 44.4742C11.5107 24.2824 27.8794 7.91367 48.0712 7.91367C64.595 7.91367 78.5584 18.8754 83.0863 33.9236C83.1099 33.6717 83.1361 33.4328 83.1653 33.2078C78.4049 18.3676 64.4925 7.6259 48.0712 7.6259C27.7205 7.6259 11.2229 24.1235 11.2229 44.4742C11.2229 64.825 27.7205 81.3226 48.0712 81.3226C55.8422 81.3226 63.0512 78.9171 68.9946 74.8101C68.6977 74.8888 68.4642 74.9298 68.3043 74.9305Z" fill="#287DFD"/>
</mask>
<g mask="url(#mask0_3_95)">
<path d="M68.3044 74.9305L68.3006 74.0672L68.0416 74.0684L67.8259 74.2118L68.3044 74.9305ZM83.0864 33.9236L82.2598 34.1724L83.9459 34.0039L83.0864 33.9236ZM83.1654 33.2078L84.0215 33.319L84.0464 33.1278L83.9874 32.944L83.1654 33.2078ZM68.9946 74.8101L69.4854 75.5203L68.7731 73.9757L68.9946 74.8101ZM48.0713 81.8981C55.7288 81.8981 62.8516 79.5973 68.7828 75.6492L67.8259 74.2118C62.1694 77.9773 55.3779 80.1715 48.0713 80.1715V81.8981ZM10.6474 44.4742C10.6474 65.1429 27.4026 81.8981 48.0713 81.8981V80.1715C28.3562 80.1715 12.374 64.1892 12.374 44.4742H10.6474ZM48.0713 7.05036C27.4026 7.05036 10.6474 23.8056 10.6474 44.4742H12.374C12.374 24.7591 28.3562 8.77698 48.0713 8.77698V7.05036ZM83.9131 33.6748C79.2785 18.2719 64.9864 7.05036 48.0713 7.05036V8.77698C64.2035 8.77698 77.8385 19.4788 82.2598 34.1724L83.9131 33.6748ZM83.9459 34.0039C83.9687 33.7606 83.9939 33.5321 84.0215 33.319L82.3092 33.0965C82.2785 33.3335 82.2513 33.5829 82.2268 33.8433L83.9459 34.0039ZM83.9874 32.944C79.1157 17.757 64.8786 6.76259 48.0713 6.76259V8.48921C64.1065 8.48921 77.6941 18.9781 82.3434 33.4715L83.9874 32.944ZM48.0713 6.76259C27.2436 6.76259 10.3596 23.6466 10.3596 44.4742H12.0862C12.0862 24.6003 28.1973 8.48921 48.0713 8.48921V6.76259ZM10.3596 44.4742C10.3596 65.3017 27.2436 82.1859 48.0713 82.1859V80.4593C28.1973 80.4593 12.0862 64.3482 12.0862 44.4742H10.3596ZM48.0713 82.1859C56.0231 82.1859 63.4025 79.7237 69.4854 75.5203L68.5038 74.0999C62.7002 78.1104 55.6613 80.4593 48.0713 80.4593V82.1859ZM68.7731 73.9757C68.4939 74.0498 68.3468 74.0671 68.3006 74.0672L68.3081 75.7938C68.5815 75.7927 68.9016 75.7279 69.2159 75.6445L68.7731 73.9757Z" fill="#287DFD"/>
</g>
<path fill-rule="evenodd" clip-rule="evenodd" d="M68.3909 75.1997C62.5733 79.0727 55.5877 81.3296 48.0748 81.3296C27.8015 81.3296 11.3669 64.8948 11.3669 44.6216C11.3669 24.3483 27.8015 7.91367 48.0748 7.91367C64.6641 7.91367 78.6833 18.9183 83.2303 34.0258C83.2539 33.774 83.2801 33.5351 83.3093 33.3101C78.5299 18.4105 64.5618 7.6259 48.0748 7.6259C27.6427 7.6259 11.0791 24.1895 11.0791 44.6216C11.0791 65.0538 27.6427 81.6174 48.0748 81.6174C55.8768 81.6174 63.1148 79.2023 69.0818 75.0788C68.7851 75.1575 68.5513 75.1987 68.3909 75.1997Z" fill="#17BEE2"/>
<mask id="mask1_3_95" style="mask-type:luminance" maskUnits="userSpaceOnUse" x="10" y="6" width="75" height="77">
<path d="M84.3165 6.76259H10.2158V82.5899H84.3165V6.76259Z" fill="white"/>
<path fill-rule="evenodd" clip-rule="evenodd" d="M68.3909 75.1997C62.5733 79.0727 55.5877 81.3296 48.0748 81.3296C27.8015 81.3296 11.3669 64.8948 11.3669 44.6216C11.3669 24.3483 27.8015 7.91367 48.0748 7.91367C64.6641 7.91367 78.6833 18.9183 83.2303 34.0258C83.2539 33.774 83.2801 33.5351 83.3093 33.3101C78.5299 18.4105 64.5618 7.6259 48.0748 7.6259C27.6427 7.6259 11.0791 24.1895 11.0791 44.6216C11.0791 65.0538 27.6427 81.6174 48.0748 81.6174C55.8768 81.6174 63.1148 79.2023 69.0818 75.0788C68.7851 75.1575 68.5513 75.1987 68.3909 75.1997Z" fill="url(#paint6_linear_3_95)"/>
</mask>
<g mask="url(#mask1_3_95)">
<path d="M68.3909 75.1997L68.3853 74.3364L68.1273 74.3381L67.9125 74.481L68.3909 75.1997ZM83.2304 34.0258L82.4037 34.2745L84.0899 34.1062L83.2304 34.0258ZM83.3093 33.3101L84.1655 33.4213L84.1904 33.2301L84.1314 33.0463L83.3093 33.3101ZM69.0819 75.0788L69.5727 75.7891L68.8604 74.2443L69.0819 75.0788ZM48.0748 82.1929C55.7632 82.1929 62.9145 79.8826 68.8693 75.9183L67.9125 74.481C62.2324 78.2626 55.4122 80.4663 48.0748 80.4663V82.1929ZM10.5036 44.6216C10.5036 65.3716 27.3249 82.1929 48.0748 82.1929V80.4663C28.2784 80.4663 12.2302 64.4181 12.2302 44.6216H10.5036ZM48.0748 7.05036C27.3249 7.05036 10.5036 23.8717 10.5036 44.6216H12.2302C12.2302 24.8252 28.2784 8.77698 48.0748 8.77698V7.05036ZM84.0571 33.7768C79.4032 18.3148 65.0557 7.05036 48.0748 7.05036V8.77698C64.2728 8.77698 77.9633 19.5217 82.4037 34.2745L84.0571 33.7768ZM84.0899 34.1062C84.1127 33.8629 84.1378 33.6344 84.1655 33.4213L82.4532 33.1988C82.4224 33.4358 82.3952 33.685 82.3708 33.9453L84.0899 34.1062ZM84.1314 33.0463C79.2407 17.8 64.9479 6.76259 48.0748 6.76259V8.48921C64.1758 8.48921 77.8191 19.021 82.4873 33.5738L84.1314 33.0463ZM48.0748 6.76259C27.1659 6.76259 10.2158 23.7127 10.2158 44.6216H11.9424C11.9424 24.6662 28.1194 8.48921 48.0748 8.48921V6.76259ZM10.2158 44.6216C10.2158 65.5306 27.1659 82.4807 48.0748 82.4807V80.7541C28.1194 80.7541 11.9424 64.577 11.9424 44.6216H10.2158ZM48.0748 82.4807C56.0578 82.4807 63.466 80.0089 69.5727 75.7891L68.5911 74.3686C62.7636 78.3955 55.696 80.7541 48.0748 80.7541V82.4807ZM68.8604 74.2443C68.5814 74.3184 68.4334 74.3361 68.3853 74.3364L68.3965 76.063C68.6693 76.0611 68.9888 75.9967 69.3032 75.9132L68.8604 74.2443Z" fill="url(#paint7_linear_3_95)"/>
</g>
<path d="M82.3023 50.7914H64.3167V56.5468H82.3023V50.7914Z" fill="url(#paint8_linear_3_95)"/>
<path d="M73.2373 45.3237V63.3094H78.9927V45.3237H73.2373Z" fill="url(#paint9_linear_3_95)"/>
<path d="M72.2663 38.0576L63.3095 63.3094H55.6116L46.6548 38.0576H53.2015L59.4605 57.1223L65.7555 38.0576H72.2663ZM97.9276 63.3094L92.7837 55.5755L88.2513 63.3094H81.2729L89.3664 50.4676L81.0931 38.0576H88.2513L93.3233 45.6835L97.7837 38.0576H104.762L96.7405 50.7914L105.086 63.3094H97.9276Z" fill="url(#paint10_linear_3_95)"/>
<defs>
<linearGradient id="paint0_linear_3_95" x1="48.2014" y1="11.3669" x2="48.2014" y2="77.5539" gradientUnits="userSpaceOnUse">
<stop offset="0.130208" stop-color="#6D6AFF" stop-opacity="0.79"/>
<stop offset="1" stop-color="#0D2657"/>
</linearGradient>
<linearGradient id="paint1_linear_3_95" x1="80.2159" y1="10.6475" x2="80.2159" y2="14.5324" gradientUnits="userSpaceOnUse">
<stop stop-color="#45F4FF"/>
<stop offset="1" stop-color="#2081F2" stop-opacity="0.76"/>
</linearGradient>
<linearGradient id="paint2_linear_3_95" x1="73.5972" y1="6.61871" x2="73.5972" y2="8.77698" gradientUnits="userSpaceOnUse">
<stop stop-color="#45F4FF"/>
<stop offset="1" stop-color="#2081F2" stop-opacity="0.76"/>
</linearGradient>
<linearGradient id="paint3_linear_3_95" x1="85.6835" y1="16.5468" x2="85.6835" y2="21.5827" gradientUnits="userSpaceOnUse">
<stop stop-color="#45F4FF"/>
<stop offset="1" stop-color="#2081F2" stop-opacity="0.76"/>
</linearGradient>
<linearGradient id="paint4_linear_3_95" x1="90.8633" y1="24.7482" x2="90.8633" y2="32.6619" gradientUnits="userSpaceOnUse">
<stop stop-color="#45F4FF"/>
<stop offset="1" stop-color="#2081F2" stop-opacity="0.76"/>
</linearGradient>
<linearGradient id="paint5_linear_3_95" x1="47.1941" y1="7.6259" x2="47.1941" y2="81.3226" gradientUnits="userSpaceOnUse">
<stop stop-color="#2C89F7"/>
<stop offset="1" stop-color="#913FFA" stop-opacity="0.88"/>
</linearGradient>
<linearGradient id="paint6_linear_3_95" x1="47.1942" y1="7.6259" x2="47.1942" y2="81.6174" gradientUnits="userSpaceOnUse">
<stop stop-color="#28D7FD"/>
<stop offset="1" stop-color="#28BFFF" stop-opacity="0.81"/>
</linearGradient>
<linearGradient id="paint7_linear_3_95" x1="47.1942" y1="7.6259" x2="47.1942" y2="81.6174" gradientUnits="userSpaceOnUse">
<stop stop-color="#28D7FD"/>
<stop offset="1" stop-color="#28BFFF" stop-opacity="0.81"/>
</linearGradient>
<linearGradient id="paint8_linear_3_95" x1="73.3095" y1="50.7914" x2="73.3095" y2="56.5468" gradientUnits="userSpaceOnUse">
<stop stop-color="#45F4FF"/>
<stop offset="1" stop-color="#45ACFF"/>
</linearGradient>
<linearGradient id="paint9_linear_3_95" x1="73.2373" y1="54.3165" x2="78.9927" y2="54.3165" gradientUnits="userSpaceOnUse">
<stop stop-color="#45F4FF"/>
<stop offset="1" stop-color="#45ACFF"/>
</linearGradient>
<linearGradient id="paint10_linear_3_95" x1="76.1872" y1="23.741" x2="76.1872" y2="77.6978" gradientUnits="userSpaceOnUse">
<stop stop-color="#24B0FF"/>
<stop offset="1" stop-color="#45F4FF"/>
</linearGradient>
</defs>
</svg>
